<mxfile host="65bd71144e">
    <diagram id="9p4TW0iuCYlUOwZASNbx" name="Page-1">
        <mxGraphModel dx="446" dy="396" grid="1" gridSize="10" guides="1" tooltips="1" connect="1" arrows="1" fold="1" page="1" pageScale="1" pageWidth="850" pageHeight="1100" math="0" shadow="0">
            <root>
                <mxCell id="0"/>
                <mxCell id="1" parent="0"/>
                <mxCell id="3" style="edgeStyle=none;html=1;entryX=0.958;entryY=0.006;entryDx=0;entryDy=0;entryPerimeter=0;exitX=0;exitY=1;exitDx=0;exitDy=0;" parent="1" source="23" target="6" edge="1">
                    <mxGeometry relative="1" as="geometry">
                        <mxPoint x="160" y="120" as="targetPoint"/>
                        <mxPoint x="420.7959067652075" y="220" as="sourcePoint"/>
                    </mxGeometry>
                </mxCell>
                <mxCell id="4" style="edgeStyle=none;html=1;entryX=0.004;entryY=0.438;entryDx=0;entryDy=0;entryPerimeter=0;exitX=1;exitY=1;exitDx=0;exitDy=0;" parent="1" source="23" target="5" edge="1">
                    <mxGeometry relative="1" as="geometry">
                        <mxPoint x="710" y="120" as="targetPoint"/>
                        <mxPoint x="470" y="210" as="sourcePoint"/>
                    </mxGeometry>
                </mxCell>
                <mxCell id="5" value="&lt;h3&gt;Frontend&lt;/h3&gt;" style="rounded=1;whiteSpace=wrap;html=1;" parent="1" vertex="1">
                    <mxGeometry x="630" y="220" width="120" height="60" as="geometry"/>
                </mxCell>
                <mxCell id="8" style="edgeStyle=none;html=1;entryX=0.694;entryY=1.009;entryDx=0;entryDy=0;entryPerimeter=0;" parent="1" source="6" target="7" edge="1">
                    <mxGeometry relative="1" as="geometry">
                        <mxPoint x="150" y="110" as="targetPoint"/>
                    </mxGeometry>
                </mxCell>
                <mxCell id="12" style="edgeStyle=none;html=1;" parent="1" source="6" target="13" edge="1">
                    <mxGeometry relative="1" as="geometry">
                        <mxPoint x="340" y="350" as="targetPoint"/>
                    </mxGeometry>
                </mxCell>
                <mxCell id="51" style="edgeStyle=none;html=1;entryX=0.383;entryY=-0.022;entryDx=0;entryDy=0;entryPerimeter=0;" parent="1" source="6" target="52" edge="1">
                    <mxGeometry relative="1" as="geometry">
                        <mxPoint x="410" y="360" as="targetPoint"/>
                    </mxGeometry>
                </mxCell>
                <mxCell id="6" value="&lt;h3&gt;backend&lt;/h3&gt;" style="rounded=1;whiteSpace=wrap;html=1;" parent="1" vertex="1">
                    <mxGeometry x="280" y="260" width="120" height="60" as="geometry"/>
                </mxCell>
                <mxCell id="128" style="edgeStyle=none;html=1;entryX=1;entryY=0.25;entryDx=0;entryDy=0;" parent="1" source="7" target="131" edge="1">
                    <mxGeometry relative="1" as="geometry">
                        <mxPoint x="270" y="60" as="targetPoint"/>
                    </mxGeometry>
                </mxCell>
                <mxCell id="7" value="" style="shape=cylinder3;whiteSpace=wrap;html=1;boundedLbl=1;backgroundOutline=1;size=15;" parent="1" vertex="1">
                    <mxGeometry x="310" y="50" width="60" height="90" as="geometry"/>
                </mxCell>
                <mxCell id="9" value="Database" style="text;html=1;align=center;verticalAlign=middle;whiteSpace=wrap;rounded=0;" parent="1" vertex="1">
                    <mxGeometry x="310" width="60" height="60" as="geometry"/>
                </mxCell>
                <mxCell id="38" style="edgeStyle=none;html=1;" parent="1" source="13" target="19" edge="1">
                    <mxGeometry relative="1" as="geometry"/>
                </mxCell>
                <mxCell id="40" style="edgeStyle=none;html=1;" parent="1" source="13" target="41" edge="1">
                    <mxGeometry relative="1" as="geometry">
                        <mxPoint x="100.00000000000006" y="365" as="targetPoint"/>
                    </mxGeometry>
                </mxCell>
                <mxCell id="13" value="User Roles" style="rounded=1;whiteSpace=wrap;html=1;" parent="1" vertex="1">
                    <mxGeometry x="190.5" y="379" width="85" height="30" as="geometry"/>
                </mxCell>
                <mxCell id="19" value="List" style="swimlane;fontStyle=0;childLayout=stackLayout;horizontal=1;startSize=26;fillColor=none;horizontalStack=0;resizeParent=1;resizeParentMax=0;resizeLast=0;collapsible=1;marginBottom=0;html=1;" parent="1" vertex="1">
                    <mxGeometry x="186" y="440" width="94" height="140" as="geometry">
                        <mxRectangle x="280" y="390" width="60" height="30" as="alternateBounds"/>
                    </mxGeometry>
                </mxCell>
                <mxCell id="27" value="Manager" style="text;strokeColor=none;fillColor=none;align=left;verticalAlign=top;spacingLeft=4;spacingRight=4;overflow=hidden;rotatable=0;points=[[0,0.5],[1,0.5]];portConstraint=eastwest;whiteSpace=wrap;html=1;" parent="19" vertex="1">
                    <mxGeometry y="26" width="94" height="34" as="geometry"/>
                </mxCell>
                <mxCell id="31" value="Employee" style="text;strokeColor=none;fillColor=none;align=left;verticalAlign=top;spacingLeft=4;spacingRight=4;overflow=hidden;rotatable=0;points=[[0,0.5],[1,0.5]];portConstraint=eastwest;whiteSpace=wrap;html=1;" parent="19" vertex="1">
                    <mxGeometry y="60" width="94" height="40" as="geometry"/>
                </mxCell>
                <mxCell id="47" style="edgeStyle=none;html=1;" parent="19" source="33" edge="1">
                    <mxGeometry relative="1" as="geometry">
                        <mxPoint x="-36" y="151" as="targetPoint"/>
                    </mxGeometry>
                </mxCell>
                <mxCell id="33" value="Customer" style="text;strokeColor=none;fillColor=none;align=left;verticalAlign=top;spacingLeft=4;spacingRight=4;overflow=hidden;rotatable=0;points=[[0,0.5],[1,0.5]];portConstraint=eastwest;whiteSpace=wrap;html=1;" parent="19" vertex="1">
                    <mxGeometry y="100" width="94" height="40" as="geometry"/>
                </mxCell>
                <mxCell id="23" value="&lt;h2&gt;system&lt;br&gt;design&lt;/h2&gt;" style="rhombus;whiteSpace=wrap;html=1;" parent="1" vertex="1">
                    <mxGeometry x="440" y="160" width="120" height="120" as="geometry"/>
                </mxCell>
                <mxCell id="41" value="Permissions" style="rounded=1;whiteSpace=wrap;html=1;" parent="1" vertex="1">
                    <mxGeometry x="50" y="379" width="80" height="29" as="geometry"/>
                </mxCell>
                <mxCell id="45" style="edgeStyle=none;html=1;entryX=0.5;entryY=0;entryDx=0;entryDy=0;" parent="1" source="42" target="46" edge="1">
                    <mxGeometry relative="1" as="geometry">
                        <mxPoint x="75" y="460" as="targetPoint"/>
                    </mxGeometry>
                </mxCell>
                <mxCell id="42" value="All Permissions to deal with users roles" style="rounded=0;whiteSpace=wrap;html=1;" parent="1" vertex="1">
                    <mxGeometry x="35" y="420" width="110" height="60" as="geometry"/>
                </mxCell>
                <mxCell id="43" style="edgeStyle=none;html=1;entryX=0.565;entryY=-0.054;entryDx=0;entryDy=0;entryPerimeter=0;" parent="1" source="41" target="42" edge="1">
                    <mxGeometry relative="1" as="geometry"/>
                </mxCell>
                <mxCell id="48" style="edgeStyle=none;html=1;" parent="1" source="46" target="49" edge="1">
                    <mxGeometry relative="1" as="geometry">
                        <mxPoint x="72.50000000000006" y="530" as="targetPoint"/>
                    </mxGeometry>
                </mxCell>
                <mxCell id="46" value="Update and create rooms and show&amp;nbsp;&amp;nbsp;&lt;span style=&quot;background-color: transparent;&quot;&gt;Analytics&lt;/span&gt;" style="rounded=0;whiteSpace=wrap;html=1;" parent="1" vertex="1">
                    <mxGeometry x="20" y="495" width="125" height="50" as="geometry"/>
                </mxCell>
                <mxCell id="44" style="edgeStyle=none;html=1;entryX=1;entryY=0.5;entryDx=0;entryDy=0;" parent="1" source="31" target="46" edge="1">
                    <mxGeometry relative="1" as="geometry">
                        <mxPoint x="140" y="468.9999999999999" as="targetPoint"/>
                    </mxGeometry>
                </mxCell>
                <mxCell id="49" value="Use service and add&amp;nbsp;&lt;div&gt;review to the room or the service&amp;nbsp;&lt;/div&gt;" style="rounded=0;whiteSpace=wrap;html=1;" parent="1" vertex="1">
                    <mxGeometry x="20" y="570" width="125" height="50" as="geometry"/>
                </mxCell>
                <mxCell id="54" style="edgeStyle=none;html=1;entryX=0.5;entryY=0;entryDx=0;entryDy=0;" parent="1" source="52" target="55" edge="1">
                    <mxGeometry relative="1" as="geometry">
                        <mxPoint x="480" y="420" as="targetPoint"/>
                    </mxGeometry>
                </mxCell>
                <mxCell id="88" style="edgeStyle=none;html=1;" parent="1" source="52" target="91" edge="1">
                    <mxGeometry relative="1" as="geometry">
                        <mxPoint x="280" y="570" as="targetPoint"/>
                    </mxGeometry>
                </mxCell>
                <mxCell id="52" value="Hotel" style="rounded=1;whiteSpace=wrap;html=1;" parent="1" vertex="1">
                    <mxGeometry x="300" y="360" width="120" height="30" as="geometry"/>
                </mxCell>
                <mxCell id="55" value="Rooms&amp;nbsp;" style="rounded=1;whiteSpace=wrap;html=1;" parent="1" vertex="1">
                    <mxGeometry x="400" y="420" width="100" height="20" as="geometry"/>
                </mxCell>
                <mxCell id="82" style="edgeStyle=none;html=1;" parent="1" source="56" edge="1">
                    <mxGeometry relative="1" as="geometry">
                        <mxPoint x="420" y="500" as="targetPoint"/>
                    </mxGeometry>
                </mxCell>
                <mxCell id="84" style="edgeStyle=none;html=1;" parent="1" source="56" edge="1">
                    <mxGeometry relative="1" as="geometry">
                        <mxPoint x="420" y="500" as="targetPoint"/>
                    </mxGeometry>
                </mxCell>
                <mxCell id="56" value="Reservations" style="rounded=1;whiteSpace=wrap;html=1;" parent="1" vertex="1">
                    <mxGeometry x="365" y="460" width="110" height="20" as="geometry"/>
                </mxCell>
                <mxCell id="37" style="edgeStyle=none;html=1;entryX=1;entryY=0.25;entryDx=0;entryDy=0;" parent="1" source="27" target="42" edge="1">
                    <mxGeometry relative="1" as="geometry">
                        <mxPoint x="129" y="429" as="targetPoint"/>
                    </mxGeometry>
                </mxCell>
                <mxCell id="73" value="Details" style="swimlane;fontStyle=0;childLayout=stackLayout;horizontal=1;startSize=30;horizontalStack=0;resizeParent=1;resizeParentMax=0;resizeLast=0;collapsible=1;marginBottom=0;whiteSpace=wrap;html=1;" parent="1" vertex="1">
                    <mxGeometry x="500" y="460" width="150" height="150" as="geometry"/>
                </mxCell>
                <mxCell id="74" value="Main image" style="text;strokeColor=none;fillColor=none;align=left;verticalAlign=middle;spacingLeft=4;spacingRight=4;overflow=hidden;points=[[0,0.5],[1,0.5]];portConstraint=eastwest;rotatable=0;whiteSpace=wrap;html=1;" parent="73" vertex="1">
                    <mxGeometry y="30" width="150" height="20" as="geometry"/>
                </mxCell>
                <mxCell id="75" value="more images" style="text;strokeColor=none;fillColor=none;align=left;verticalAlign=middle;spacingLeft=4;spacingRight=4;overflow=hidden;points=[[0,0.5],[1,0.5]];portConstraint=eastwest;rotatable=0;whiteSpace=wrap;html=1;" parent="73" vertex="1">
                    <mxGeometry y="50" width="150" height="20" as="geometry"/>
                </mxCell>
                <mxCell id="76" value="Title" style="text;strokeColor=none;fillColor=none;align=left;verticalAlign=middle;spacingLeft=4;spacingRight=4;overflow=hidden;points=[[0,0.5],[1,0.5]];portConstraint=eastwest;rotatable=0;whiteSpace=wrap;html=1;" parent="73" vertex="1">
                    <mxGeometry y="70" width="150" height="20" as="geometry"/>
                </mxCell>
                <mxCell id="78" value="price ber day $" style="text;strokeColor=none;fillColor=none;align=left;verticalAlign=middle;spacingLeft=4;spacingRight=4;overflow=hidden;points=[[0,0.5],[1,0.5]];portConstraint=eastwest;rotatable=0;whiteSpace=wrap;html=1;" parent="73" vertex="1">
                    <mxGeometry y="90" width="150" height="20" as="geometry"/>
                </mxCell>
                <mxCell id="77" value="count of rooms" style="text;strokeColor=none;fillColor=none;align=left;verticalAlign=middle;spacingLeft=4;spacingRight=4;overflow=hidden;points=[[0,0.5],[1,0.5]];portConstraint=eastwest;rotatable=0;whiteSpace=wrap;html=1;" parent="73" vertex="1">
                    <mxGeometry y="110" width="150" height="20" as="geometry"/>
                </mxCell>
                <mxCell id="79" value="number of rooms in reservation" style="text;strokeColor=none;fillColor=none;align=left;verticalAlign=middle;spacingLeft=4;spacingRight=4;overflow=hidden;points=[[0,0.5],[1,0.5]];portConstraint=eastwest;rotatable=0;whiteSpace=wrap;html=1;" parent="73" vertex="1">
                    <mxGeometry y="130" width="150" height="20" as="geometry"/>
                </mxCell>
                <mxCell id="89" value="" style="shape=curlyBracket;whiteSpace=wrap;html=1;rounded=1;flipH=1;labelPosition=right;verticalLabelPosition=middle;align=left;verticalAlign=middle;rotation=-90;" parent="1" vertex="1">
                    <mxGeometry x="460" y="390" width="20" height="120" as="geometry"/>
                </mxCell>
                <UserObject label="&lt;p data-pm-slice=&quot;1 1 []&quot;&gt;Analytics&lt;/p&gt;" treeRoot="1" id="91">
                    <mxCell style="whiteSpace=wrap;html=1;align=center;treeFolding=1;treeMoving=1;newEdgeStyle={&quot;edgeStyle&quot;:&quot;elbowEdgeStyle&quot;,&quot;startArrow&quot;:&quot;none&quot;,&quot;endArrow&quot;:&quot;none&quot;};" parent="1" vertex="1">
                        <mxGeometry x="230" y="610" width="120" height="60" as="geometry"/>
                    </mxCell>
                </UserObject>
                <mxCell id="96" style="edgeStyle=none;html=1;" parent="1" source="93" target="95" edge="1">
                    <mxGeometry relative="1" as="geometry"/>
                </mxCell>
                <mxCell id="93" value="Rooms" style="rounded=1;whiteSpace=wrap;html=1;" parent="1" vertex="1">
                    <mxGeometry x="300" y="690" width="95" height="20" as="geometry"/>
                </mxCell>
                <mxCell id="94" value="" style="shape=curlyBracket;whiteSpace=wrap;html=1;rounded=1;flipH=1;labelPosition=right;verticalLabelPosition=middle;align=left;verticalAlign=middle;rotation=-90;" parent="1" vertex="1">
                    <mxGeometry x="280" y="620" width="20" height="120" as="geometry"/>
                </mxCell>
                <mxCell id="95" value="Important Rooms" style="rounded=1;whiteSpace=wrap;html=1;" parent="1" vertex="1">
                    <mxGeometry x="310" y="720" width="95" height="20" as="geometry"/>
                </mxCell>
                <mxCell id="98" value="Reservations" style="rounded=1;whiteSpace=wrap;html=1;" parent="1" vertex="1">
                    <mxGeometry x="185" y="690" width="95" height="20" as="geometry"/>
                </mxCell>
                <mxCell id="99" value="reservation&lt;div&gt;1-user email&lt;/div&gt;&lt;div&gt;2- number of days&lt;/div&gt;&lt;div&gt;3- roomId&lt;/div&gt;&lt;div&gt;4- payment check with (&#39;coupon&#39;)&lt;/div&gt;&lt;div&gt;5-email send&lt;/div&gt;&lt;div&gt;6-date start &amp;amp; end&lt;/div&gt;" style="whiteSpace=wrap;html=1;aspect=fixed;" parent="1" vertex="1">
                    <mxGeometry x="357.5" y="485" width="135" height="135" as="geometry"/>
                </mxCell>
                <mxCell id="101" value="" style="shape=curlyBracket;whiteSpace=wrap;html=1;rounded=1;flipH=1;labelPosition=right;verticalLabelPosition=middle;align=left;verticalAlign=middle;rotation=-90;" parent="1" vertex="1">
                    <mxGeometry x="225" y="670" width="10" height="90" as="geometry"/>
                </mxCell>
                <mxCell id="102" value="Customer" style="rounded=1;whiteSpace=wrap;html=1;" parent="1" vertex="1">
                    <mxGeometry x="110" y="720" width="95" height="20" as="geometry"/>
                </mxCell>
                <mxCell id="108" value="Money" style="rounded=1;whiteSpace=wrap;html=1;" parent="1" vertex="1">
                    <mxGeometry x="207.5" y="720" width="95" height="20" as="geometry"/>
                </mxCell>
                <mxCell id="110" value="if the money is bigger than 1500$&lt;div&gt;send couponwith 5 % percent discount&lt;/div&gt;&lt;div&gt;2500$&amp;nbsp; &amp;gt;= 6%&lt;/div&gt;&lt;div&gt;and so on untill&lt;/div&gt;&lt;div&gt;6500$&amp;nbsp; &amp;gt;= 10 %&lt;/div&gt;" style="whiteSpace=wrap;html=1;align=center;verticalAlign=middle;treeFolding=1;treeMoving=1;newEdgeStyle={&quot;edgeStyle&quot;:&quot;elbowEdgeStyle&quot;,&quot;startArrow&quot;:&quot;none&quot;,&quot;endArrow&quot;:&quot;none&quot;};" parent="1" vertex="1">
                    <mxGeometry x="420" y="640" width="130" height="120" as="geometry"/>
                </mxCell>
                <mxCell id="111" value="" style="edgeStyle=elbowEdgeStyle;elbow=vertical;sourcePerimeterSpacing=0;targetPerimeterSpacing=0;startArrow=none;endArrow=none;rounded=0;curved=0;exitX=0.315;exitY=1;exitDx=0;exitDy=0;exitPerimeter=0;" parent="1" source="99" target="110" edge="1">
                    <mxGeometry relative="1" as="geometry">
                        <mxPoint x="400" y="625" as="sourcePoint"/>
                    </mxGeometry>
                </mxCell>
                <mxCell id="130" value="Pool" style="swimlane;childLayout=stackLayout;resizeParent=1;resizeParentMax=0;horizontal=1;startSize=20;horizontalStack=0;html=1;" parent="1" vertex="1">
                    <mxGeometry y="10" width="270" height="320" as="geometry"/>
                </mxCell>
                <mxCell id="131" value="users" style="swimlane;startSize=20;horizontal=0;html=1;" parent="130" vertex="1">
                    <mxGeometry y="20" width="270" height="60" as="geometry"/>
                </mxCell>
                <mxCell id="137" value="&lt;div&gt;&lt;br&gt;&lt;/div&gt;&lt;div&gt;&lt;br&gt;&lt;/div&gt;&lt;div&gt;&lt;br&gt;&lt;/div&gt;&lt;div&gt;id , email , full name , password &#39;hased&#39; ,&lt;/div&gt;&lt;div&gt;role , image&lt;/div&gt;" style="text;html=1;whiteSpace=wrap;overflow=hidden;rounded=0;" parent="131" vertex="1">
                    <mxGeometry x="40" y="-30" width="230" height="90" as="geometry"/>
                </mxCell>
                <mxCell id="132" value="rooms" style="swimlane;startSize=20;horizontal=0;html=1;" parent="130" vertex="1">
                    <mxGeometry y="80" width="270" height="70" as="geometry"/>
                </mxCell>
                <mxCell id="138" value="&lt;div&gt;&lt;br&gt;&lt;/div&gt;&lt;div&gt;&lt;br&gt;&lt;/div&gt;&lt;div&gt;&lt;br&gt;&lt;/div&gt;&lt;div&gt;id , title ,descripition , main image , more images , rate , price ber day $ , count of rooms , reservation count , family count&lt;/div&gt;" style="text;html=1;whiteSpace=wrap;overflow=hidden;rounded=0;" parent="132" vertex="1">
                    <mxGeometry x="25" y="-30" width="230" height="90" as="geometry"/>
                </mxCell>
                <mxCell id="147" value="rms_imgs" style="swimlane;startSize=20;horizontal=0;html=1;" parent="130" vertex="1">
                    <mxGeometry y="150" width="270" height="60" as="geometry"/>
                </mxCell>
                <mxCell id="148" value="&lt;div&gt;&lt;br&gt;&lt;/div&gt;&lt;div&gt;&lt;br&gt;&lt;/div&gt;&lt;div&gt;&lt;br&gt;&lt;/div&gt;&lt;div&gt;id, image , roomId&amp;nbsp;&lt;/div&gt;" style="text;html=1;whiteSpace=wrap;overflow=hidden;rounded=0;" parent="147" vertex="1">
                    <mxGeometry x="30" y="-40" width="230" height="90" as="geometry"/>
                </mxCell>
                <mxCell id="135" value="reservation" style="swimlane;startSize=20;horizontal=0;html=1;" parent="130" vertex="1">
                    <mxGeometry y="210" width="270" height="70" as="geometry"/>
                </mxCell>
                <mxCell id="139" value="&lt;div&gt;&lt;br&gt;&lt;/div&gt;&lt;div&gt;&lt;br&gt;&lt;/div&gt;&lt;div&gt;&lt;br&gt;&lt;/div&gt;&lt;div&gt;id, roomID , userID , days , date ,&amp;nbsp; price ber day * dayes (count) ,&lt;/div&gt;" style="text;html=1;whiteSpace=wrap;overflow=hidden;rounded=0;" parent="135" vertex="1">
                    <mxGeometry x="30" y="-20" width="230" height="90" as="geometry"/>
                </mxCell>
                <mxCell id="133" value="reviews" style="swimlane;startSize=20;horizontal=0;html=1;" parent="130" vertex="1">
                    <mxGeometry y="280" width="270" height="40" as="geometry"/>
                </mxCell>
                <mxCell id="141" value="&lt;div&gt;&lt;br&gt;&lt;/div&gt;&lt;div&gt;&lt;br&gt;&lt;/div&gt;&lt;div&gt;&lt;br&gt;&lt;/div&gt;&lt;div&gt;id , userID, review-comment , rate&amp;nbsp;&lt;/div&gt;" style="text;html=1;whiteSpace=wrap;overflow=hidden;rounded=0;" parent="133" vertex="1">
                    <mxGeometry x="40" y="-30" width="230" height="90" as="geometry"/>
                </mxCell>
            </root>
        </mxGraphModel>
    </diagram>
</mxfile>